<?xml version="1.0" encoding="UTF-8"?>
<svg version="1.1" xmlns="http://www.w3.org/2000/svg" width="512" height="512">
<path d="M0 0 C1.25847744 -0.00445668 1.25847744 -0.00445668 2.54237866 -0.0090034 C5.35811684 -0.01768588 8.17381248 -0.01919827 10.98956299 -0.02069092 C13.00670462 -0.02531942 15.02384537 -0.03034412 17.04098511 -0.03573608 C22.52458126 -0.04885917 28.00816516 -0.05530489 33.49177456 -0.05974674 C36.91776888 -0.06267766 40.34375986 -0.06678251 43.7697525 -0.07125092 C54.48905381 -0.08492571 65.20834746 -0.09459241 75.92765689 -0.09845281 C88.30117585 -0.10293342 100.67458434 -0.1204816 113.04806972 -0.1494534 C122.61252975 -0.17107059 132.17695871 -0.18115711 141.74144292 -0.18249393 C147.45377807 -0.18354194 153.16600936 -0.18944905 158.87831879 -0.20731354 C164.25289208 -0.22379473 169.62728346 -0.22594941 175.00187302 -0.21717453 C176.97229118 -0.21640418 178.94271913 -0.22074657 180.91311264 -0.23063278 C183.60781837 -0.24335804 186.30188037 -0.23747233 188.99658203 -0.22705078 C189.77208617 -0.23510719 190.54759031 -0.24316359 191.34659457 -0.25146413 C197.9309127 -0.19211092 203.4131556 1.16519961 208.5647583 5.51544189 C213.49703885 11.43417856 214.19039836 15.30484021 214.14666748 22.83717346 C214.15275858 23.81993718 214.15884969 24.8027009 214.16512537 25.81524533 C214.18178775 29.11166821 214.17697482 32.40770619 214.17218018 35.7041626 C214.17951867 38.0662781 214.18810425 40.42839001 214.19784546 42.79049683 C214.22009471 49.20998632 214.22299037 55.62934757 214.22109795 62.04887033 C214.22030906 66.05898114 214.22521569 70.0690784 214.23158264 74.07918358 C214.23368187 75.42694368 214.23577947 76.77470378 214.23787546 78.12246388 C214.23891899 78.79331185 214.23996252 79.46415982 214.24103767 80.15533652 C214.25993782 92.84144835 214.25889073 105.52750234 214.25206834 118.21362241 C214.24649484 129.81217263 214.26731035 141.41050183 214.30042881 153.0090004 C214.33418652 164.92406711 214.34933144 176.83902801 214.34471178 188.75414342 C214.34246894 195.44125634 214.34814261 202.1281347 214.37260437 208.81521034 C214.39485205 215.10505938 214.39300948 221.3944484 214.37267685 227.68429947 C214.36926322 229.99174163 214.37437097 232.29921463 214.38866043 234.60661507 C214.40683542 237.75920002 214.39411538 240.91022159 214.37371826 244.0627594 C214.38623611 244.97376461 214.39875396 245.88476982 214.41165113 246.82338125 C214.32526462 253.06047117 212.97590677 257.44734335 208.7522583 262.14044189 C203.91559939 266.33074412 199.03052295 266.71833476 192.84004211 266.65510559 C191.52871714 266.66552388 191.52871714 266.66552388 190.19090074 266.67615265 C187.27367197 266.69438838 184.35725958 266.68416787 181.44000244 266.67388916 C179.34359632 266.68094935 177.2471953 266.68969479 175.15080261 266.69999695 C169.46482729 266.72248922 163.77913035 266.71955149 158.09312749 266.71067548 C153.34404883 266.70556362 148.59502239 266.71285978 143.84594911 266.72014755 C132.64157667 266.73714606 121.43734042 266.73358112 110.23297119 266.71685791 C98.67839931 266.69993489 87.12420518 266.71577396 75.56967455 266.74808079 C65.64419672 266.77478019 55.71883645 266.78205176 45.79332632 266.77356571 C39.86748873 266.76863778 33.94187845 266.77084522 28.01606941 266.79135323 C22.44351382 266.80971569 16.87150144 266.80374418 11.29897499 266.77915382 C9.25599691 266.77414787 7.21297741 266.77763005 5.1700325 266.79030228 C2.37655201 266.80625685 -0.41514493 266.7912594 -3.20854187 266.76863098 C-4.01312724 266.78046671 -4.8177126 266.79230244 -5.64667934 266.80449682 C-11.58750658 266.70701795 -15.75889953 265.08384531 -20.2477417 261.14044189 C-24.7358178 256.09370435 -24.82103564 250.69085675 -24.7624054 244.20320129 C-24.76935092 243.21872873 -24.77629645 242.23425616 -24.78345245 241.21995109 C-24.8017111 237.92962535 -24.79146096 234.64002153 -24.78118896 231.34967041 C-24.78824797 228.98725851 -24.79699291 226.62485114 -24.80729675 224.26245117 C-24.82980211 217.85130189 -24.82684821 211.44039934 -24.81797528 205.02922559 C-24.81313349 201.02345815 -24.81643093 197.01771095 -24.82194328 193.01194572 C-24.82284494 192.34634188 -24.82374659 191.68073803 -24.82467557 190.99496437 C-24.82652683 189.64266395 -24.82838939 188.29036353 -24.83026313 186.93806314 C-24.84683108 174.26527263 -24.83813108 161.59259355 -24.82127755 148.91980975 C-24.80658236 137.33431303 -24.82120806 125.74907569 -24.85004772 114.16361237 C-24.87946401 102.25751319 -24.89040746 90.35153363 -24.88086551 78.4453997 C-24.879843 77.0978511 -24.87884839 75.75030247 -24.877882 74.40275383 C-24.87740561 73.73979387 -24.87692922 73.0768339 -24.8764384 72.39378424 C-24.87427714 67.73063604 -24.88434621 63.06766145 -24.89865303 58.40454292 C-24.91700308 52.12285844 -24.91105888 45.8416561 -24.88645363 39.55999756 C-24.88144378 37.25578489 -24.8849399 34.95153554 -24.89760208 32.64735222 C-24.91353219 29.49923603 -24.89858057 26.35270758 -24.87593079 23.20466614 C-24.88776651 22.29502517 -24.89960224 21.3853842 -24.91179663 20.44817835 C-24.82136327 14.25203568 -23.35473248 9.86844667 -19.2477417 5.14044189 C-13.20440651 0.46605708 -7.37796329 -0.00814974 0 0 Z M34.04522705 39.98028564 C33.3812793 40.66211914 32.71733154 41.34395264 32.03326416 42.04644775 C30.68670957 43.4347635 29.35263432 44.8353005 28.03179932 46.24810791 C27.40845703 46.89320313 26.78511475 47.53829834 26.1428833 48.20294189 C25.58633057 48.79204346 25.02977783 49.38114502 24.45635986 49.98809814 C22.7522583 51.14044189 22.7522583 51.14044189 20.65753174 50.92559814 C18.7522583 50.14044189 18.7522583 50.14044189 16.8772583 48.51544189 C14.75413347 46.85997083 14.75413347 46.85997083 11.7522583 47.20294189 C8.27443155 48.28976275 6.89450666 49.20476821 4.7522583 52.14044189 C3.32091057 54.89014146 3.32091057 54.89014146 3.7522583 58.14044189 C5.73719586 61.1577928 8.21108952 63.58948055 10.7522583 66.14044189 C11.32846924 66.82235596 11.90468018 67.50427002 12.49835205 68.20684814 C13.05651611 68.84493408 13.61468018 69.48302002 14.1897583 70.14044189 C14.68346924 70.71794189 15.17718018 71.29544189 15.68585205 71.89044189 C18.94413274 73.86142454 22.11575236 73.8873257 25.7522583 73.14044189 C28.67257507 71.3499866 30.91456482 69.03073337 33.27960205 66.57012939 C33.95398819 65.89628204 34.62837433 65.22243469 35.32319641 64.52816772 C36.74025405 63.1034292 38.14753692 61.66890967 39.54547119 60.22540283 C41.68467717 58.02067865 43.85653656 55.85272028 46.03546143 53.68731689 C47.41057865 52.29613112 48.78369637 50.9029655 50.15460205 49.50762939 C50.80243149 48.86050995 51.45026093 48.2133905 52.11772156 47.54666138 C55.5960718 43.9195036 57.73371526 41.42092813 57.7522583 36.14044189 C56.14813982 32.61138123 55.01066468 31.31271282 51.7522583 29.14044189 C43.75846192 27.46732172 39.05994267 34.77690503 34.04522705 39.98028564 Z M77.3772583 51.95294189 C76.49136115 55.05358193 76.85280651 57.05660719 77.7522583 60.14044189 C79.41530968 62.58757977 80.72051573 63.94060541 83.68514824 64.5148201 C86.20269245 64.67765829 88.69204944 64.70359395 91.21490479 64.6897583 C92.17306091 64.69998016 93.13121704 64.71020203 94.1184082 64.72073364 C97.28697668 64.74854325 100.45467602 64.74661132 103.62335205 64.74200439 C105.82526473 64.74977723 108.02717442 64.75844634 110.2290802 64.76797485 C114.8450594 64.78290288 119.46073267 64.7823143 124.07672119 64.77178955 C129.99325325 64.76019768 135.90853362 64.79406365 141.82485867 64.8404789 C146.37251613 64.86993735 150.91987153 64.8716994 155.4676075 64.86545944 C157.64892113 64.86648666 159.8302515 64.87697716 162.0114727 64.89708328 C165.06188248 64.92175057 168.10984689 64.90827277 171.16021729 64.8850708 C172.51241112 64.90800201 172.51241112 64.90800201 173.891922 64.93139648 C178.46818338 64.88921057 178.46818338 64.88921057 182.44963264 62.88242722 C185.00538373 60.01938382 185.74415504 58.37543647 185.8772583 54.51544189 C184.4976309 50.37655969 183.46796225 49.38692809 179.7522583 47.14044189 C176.64871913 46.56825726 173.6001657 46.60381659 170.45147705 46.63873291 C169.52243561 46.63332993 168.59339417 46.62792694 167.63619995 46.62236023 C164.57039366 46.60987022 161.50552593 46.62636609 158.4397583 46.64434814 C156.3065384 46.64419316 154.17331821 46.64270433 152.0401001 46.63993835 C147.57130471 46.63855424 143.10283023 46.65111487 138.63409424 46.67388916 C132.90736207 46.70227357 127.1811631 46.69953651 121.45439148 46.68679905 C117.05002289 46.67984242 112.64577743 46.68763103 108.24142456 46.70005608 C106.12991813 46.70457071 104.01839849 46.70490727 101.90689087 46.70099068 C98.9553317 46.69807868 96.00450601 46.71458534 93.05303955 46.73638916 C91.74528061 46.72963669 91.74528061 46.72963669 90.41110229 46.7227478 C84.96306702 46.78958006 80.88547138 47.3284792 77.3772583 51.95294189 Z M37.7522583 91.14044189 C37.15010498 91.7356665 36.54795166 92.33089111 35.92755127 92.94415283 C31.50807463 97.31562647 27.11996895 101.7172818 22.7522583 106.14044189 C20.73990184 105.15301232 18.81643391 104.18248799 16.9397583 102.95294189 C13.62248153 101.72081052 11.14333594 102.33891445 7.7522583 103.14044189 C4.98233153 104.80239796 4.717212 106.23973974 3.6272583 109.32794189 C3.81401324 115.02396762 6.83763473 117.2860433 10.7522583 121.14044189 C11.3400708 121.82106689 11.9278833 122.50169189 12.5335083 123.20294189 C15.34921394 126.37701007 17.00735297 127.95082963 21.1897583 129.01544189 C30.03530275 126.84285203 37.17096624 117.00050444 43.55474854 110.68804932 C44.65202564 109.60748451 45.75465985 108.53233489 46.86236572 107.46246338 C48.48249591 105.89709145 50.08555219 104.31589476 51.68585205 102.73028564 C52.18056503 102.25824203 52.67527802 101.78619843 53.1849823 101.29985046 C56.38610023 98.07866372 57.58274624 95.68737676 57.7522583 91.14044189 C56.14813982 87.61138123 55.01066468 86.31271282 51.7522583 84.14044189 C45.13799388 82.75606097 42.10069096 86.81186509 37.7522583 91.14044189 Z M77.7522583 106.14044189 C76.51551579 109.77337303 76.40767627 111.38236142 78.0022583 114.89044189 C79.89662916 117.32606157 81.46070152 118.96275932 84.62232018 119.3977108 C85.32837206 119.40106249 86.03442394 119.40441418 86.76187134 119.40786743 C87.98147804 119.42066238 87.98147804 119.42066238 89.22572327 119.43371582 C90.11410385 119.43280945 91.00248444 119.43190308 91.91778564 119.43096924 C92.8562886 119.43768646 93.79479156 119.44440369 94.76173401 119.45132446 C97.87060816 119.47035441 100.979267 119.47423121 104.0881958 119.47637939 C106.24669484 119.48280395 108.405193 119.48953205 110.56369019 119.49655151 C115.09141051 119.50853686 119.61905447 119.51223105 124.14678955 119.51104736 C129.94984466 119.51084413 135.75241027 119.53814563 141.55534935 119.57259178 C146.01460013 119.59482487 150.47373245 119.598886 154.93303299 119.59782791 C157.07247225 119.60018931 159.21191451 119.60904302 161.35129929 119.62449265 C164.34386248 119.64407922 167.33536173 119.63834311 170.32794189 119.62628174 C171.65444008 119.64314026 171.65444008 119.64314026 173.00773621 119.66033936 C177.06022207 119.61881528 179.23249793 119.45263397 182.77487183 117.32492065 C185.53617402 114.27442645 185.82381295 112.21905683 185.7522583 108.14044189 C183.98584658 105.33854744 182.72176008 103.62519279 179.7522583 102.14044189 C176.72769587 102.02599425 173.72564912 101.97256013 170.70025635 101.96343994 C169.76189941 101.95686874 168.82354248 101.95029755 167.85675049 101.94352722 C164.74249192 101.92376978 161.62828162 101.9121265 158.51397705 101.90216064 C156.92085158 101.89604735 156.92085158 101.89604735 155.29554176 101.88981056 C149.67475198 101.86893992 144.05398668 101.8546422 138.4331665 101.84527588 C132.62226493 101.83420614 126.81174573 101.79980233 121.00097942 101.76010418 C116.53745299 101.73398194 112.07401829 101.72558797 107.61042213 101.7219944 C105.46818266 101.7171175 103.32594758 101.7054723 101.18378258 101.68695641 C98.18635981 101.66265754 95.18993457 101.66351315 92.19244385 101.67047119 C91.30654068 101.65766113 90.42063751 101.64485107 89.50788879 101.63165283 C84.34875461 101.67533243 81.41973606 102.13506672 77.7522583 106.14044189 Z M37.7522583 146.14044189 C36.4716759 147.40934516 35.19035918 148.67750756 33.9085083 149.94512939 C30.16872713 153.65621772 26.45413305 157.39157069 22.7522583 161.14044189 C20.25864259 159.93662741 18.07082747 158.68615468 15.7522583 157.14044189 C12.00949278 156.65225509 10.23149775 156.86354799 6.9397583 158.76544189 C4.26227875 161.6724197 3.7522583 163.20484799 3.7522583 167.14044189 C5.80688384 171.24291204 8.56005332 174.18846409 11.8147583 177.39044189 C12.69260986 178.26184814 13.57046143 179.13325439 14.47491455 180.03106689 C16.96267085 182.33533516 18.07885179 183.01217399 21.3772583 183.64044189 C29.94710701 182.37083468 37.48167 171.72527967 43.55474854 165.74298096 C44.6511649 164.66833902 45.7538107 163.6000186 46.86236572 162.53790283 C48.48496783 160.9823031 50.08690085 159.40779866 51.68585205 157.82794189 C52.18056503 157.36105957 52.67527802 156.89417725 53.1849823 156.41314697 C56.69835904 152.8783275 57.66622424 150.09370012 57.7522583 145.14044189 C55.92556892 141.56507033 55.92556892 141.56507033 52.7522583 139.14044189 C45.64066819 137.3960896 42.40742763 141.44216914 37.7522583 146.14044189 Z M77.7522583 161.14044189 C76.51551579 164.77337303 76.40767627 166.38236142 78.0022583 169.89044189 C79.89662916 172.32606157 81.46070152 173.96275932 84.62232018 174.3977108 C85.32837206 174.40106249 86.03442394 174.40441418 86.76187134 174.40786743 C87.98147804 174.42066238 87.98147804 174.42066238 89.22572327 174.43371582 C90.11410385 174.43280945 91.00248444 174.43190308 91.91778564 174.43096924 C92.8562886 174.43768646 93.79479156 174.44440369 94.76173401 174.45132446 C97.87060816 174.47035441 100.979267 174.47423121 104.0881958 174.47637939 C106.24669484 174.48280395 108.405193 174.48953205 110.56369019 174.49655151 C115.09141051 174.50853686 119.61905447 174.51223105 124.14678955 174.51104736 C129.94984466 174.51084413 135.75241027 174.53814563 141.55534935 174.57259178 C146.01460013 174.59482487 150.47373245 174.598886 154.93303299 174.59782791 C157.07247225 174.60018931 159.21191451 174.60904302 161.35129929 174.62449265 C164.34386248 174.64407922 167.33536173 174.63834311 170.32794189 174.62628174 C171.65444008 174.64314026 171.65444008 174.64314026 173.00773621 174.66033936 C177.06022207 174.61881528 179.23249793 174.45263397 182.77487183 172.32492065 C185.53617402 169.27442645 185.82381295 167.21905683 185.7522583 163.14044189 C183.98584658 160.33854744 182.72176008 158.62519279 179.7522583 157.14044189 C176.72769587 157.02599425 173.72564912 156.97256013 170.70025635 156.96343994 C169.76189941 156.95686874 168.82354248 156.95029755 167.85675049 156.94352722 C164.74249192 156.92376978 161.62828162 156.9121265 158.51397705 156.90216064 C156.92085158 156.89604735 156.92085158 156.89604735 155.29554176 156.88981056 C149.67475198 156.86893992 144.05398668 156.8546422 138.4331665 156.84527588 C132.62226493 156.83420614 126.81174573 156.79980233 121.00097942 156.76010418 C116.53745299 156.73398194 112.07401829 156.72558797 107.61042213 156.7219944 C105.46818266 156.7171175 103.32594758 156.7054723 101.18378258 156.68695641 C98.18635981 156.66265754 95.18993457 156.66351315 92.19244385 156.67047119 C91.30654068 156.65766113 90.42063751 156.64485107 89.50788879 156.63165283 C84.34875461 156.67533243 81.41973606 157.13506672 77.7522583 161.14044189 Z M33.2522583 205.14044189 C32.23070692 206.20215573 31.20728521 207.26207335 30.1819458 208.32012939 C27.68340947 210.90647503 25.21129845 213.51645065 22.7522583 216.14044189 C20.25864259 214.93662741 18.07082747 213.68615468 15.7522583 212.14044189 C12.00949278 211.65225509 10.23149775 211.86354799 6.9397583 213.76544189 C4.26227875 216.6724197 3.7522583 218.20484799 3.7522583 222.14044189 C5.80688384 226.24291204 8.56005332 229.18846409 11.8147583 232.39044189 C12.69260986 233.26184814 13.57046143 234.13325439 14.47491455 235.03106689 C16.96267085 237.33533516 18.07885179 238.01217399 21.3772583 238.64044189 C29.88130417 237.38058325 37.11088074 226.96806789 43.0725708 221.00543213 C44.64011037 219.44010799 46.21552792 217.88299898 47.7913208 216.32598877 C48.79701686 215.32322247 49.80224265 214.31998426 50.8069458 213.31622314 C52.16021973 211.96911255 52.16021973 211.96911255 53.54083252 210.5947876 C56.4675517 207.3465752 57.81053741 205.53914049 57.6272583 201.14044189 C56.58533404 197.56813013 55.85583027 196.20948987 52.7522583 194.14044189 C43.60273578 192.03782125 38.98051564 199.01610153 33.2522583 205.14044189 Z M77.7522583 216.14044189 C76.58115381 219.00004249 76.58115381 219.00004249 76.7522583 222.14044189 C79.19558312 226.84429039 79.19558312 226.84429039 83.7522583 229.14044189 C86.7840958 229.25278782 89.7935192 229.30816769 92.82598877 229.31744385 C94.21911285 229.32730064 94.21911285 229.32730064 95.64038086 229.33735657 C98.71673664 229.3570831 101.79304367 229.36874946 104.8694458 229.37872314 C106.44464682 229.38483644 106.44464682 229.38483644 108.05167007 229.39107323 C113.60762587 229.41192911 119.16355698 229.42623412 124.71954346 229.43560791 C130.46203689 229.446684 136.20414408 229.48109929 141.94650078 229.52077961 C146.35941294 229.5469004 150.77223232 229.55529561 155.185215 229.55888939 C157.302335 229.56376543 159.41945059 229.57540822 161.53649521 229.59392738 C164.49789 229.61822671 167.4582752 229.61737077 170.41973877 229.6104126 C171.29472015 229.62322266 172.16970154 229.63603271 173.07119751 229.64923096 C177.10582403 229.61465632 179.24098171 229.44901569 182.76522827 227.32200623 C185.57353312 224.23876259 185.89514867 222.28426264 185.7522583 218.14044189 C183.14385974 213.72926191 183.14385974 213.72926191 178.72134209 211.58973312 C176.18312321 211.3716948 173.70756328 211.35261376 171.16021729 211.39581299 C169.72035461 211.38486099 169.72035461 211.38486099 168.25140381 211.37368774 C165.08299674 211.35749408 161.91664122 211.38467465 158.74835205 211.41387939 C156.54547629 211.41491676 154.34259866 211.41388072 152.13972473 211.41085815 C147.52534305 211.41103751 142.91166087 211.43187862 138.29742432 211.46807861 C132.37988951 211.51348065 126.46337547 211.51453596 120.54571438 211.50104332 C115.99808157 211.49436406 111.45068194 211.50762258 106.90309334 211.52730179 C104.72099083 211.53500469 102.53886238 211.53730266 100.35674858 211.5341301 C97.30896342 211.53338918 94.26249264 211.55861302 91.21490479 211.59112549 C90.311418 211.58617065 89.40793121 211.58121582 88.47706604 211.57611084 C83.56519544 211.65983692 80.73049747 211.79712881 77.7522583 216.14044189 Z " fill="#000000" transform="translate(161.24774169921875,245.85955810546875)"/>
<path d="M0 0 C1.67770226 0.47706894 1.67770226 0.47706894 3.38929749 0.96377563 C6.50635501 1.85339327 9.6189481 2.75701719 12.73023987 3.66654968 C16.10880366 4.65038091 19.49264218 5.61573659 22.87597656 6.58300781 C28.25631651 8.12319765 33.63463316 9.67021111 39.01116753 11.22363281 C51.28893263 14.77066487 63.57830436 18.27647861 75.86957741 21.77637863 C94.46919437 27.07276955 113.06783812 32.37261864 131.66131401 37.69053268 C133.74352312 38.28587193 135.82586051 38.88076275 137.90834236 39.47514725 C151.1437979 43.25328353 164.34606057 47.12813447 177.51953125 51.1171875 C177.51953125 51.7771875 177.51953125 52.4371875 177.51953125 53.1171875 C176.71190338 53.34173111 175.90427551 53.56627472 175.07217407 53.79762268 C134.89754933 64.96824503 94.7300868 76.16390463 54.58203125 87.4296875 C53.73421333 87.66757618 52.88639542 87.90546486 52.01288605 88.15056229 C47.02094609 89.5512572 47.02094609 89.5512572 42.02921677 90.95270252 C38.06514316 92.06595022 34.10064476 93.17761964 30.13500977 94.28529358 C23.27018781 96.20494002 16.41109912 98.13899746 9.57152271 100.14702702 C6.60939051 101.01596233 3.64451569 101.87531763 0.67944145 102.73415184 C-0.70129966 103.13727568 -2.08059963 103.54537513 -3.4582653 103.9588871 C-5.34682766 104.52563063 -7.24083371 105.07413731 -9.13500977 105.62182617 C-10.72757347 106.09322273 -10.72757347 106.09322273 -12.35231018 106.57414246 C-18.42785448 107.62885057 -24.02888825 105.80331646 -29.8684082 104.16552734 C-30.57819541 103.96777018 -31.28798262 103.77001301 -32.01927853 103.5662632 C-34.37863552 102.90775909 -36.73616774 102.24295249 -39.09375 101.578125 C-40.78828413 101.1037843 -42.4829281 100.62983587 -44.17767334 100.15625 C-48.76234091 98.87389736 -53.34545584 97.58607531 -57.92830276 96.29723358 C-62.73249063 94.94713111 -67.53807175 93.60200618 -72.34350586 92.25634766 C-80.35023246 90.01353696 -88.35608817 87.76764217 -96.36132812 85.51953125 C-107.18952387 82.47870578 -118.01938401 79.44384776 -128.8497715 76.41083908 C-140.51208 73.14464637 -152.17390229 69.87671519 -163.83520508 66.60693359 C-165.06423097 66.26232244 -165.06423097 66.26232244 -166.31808567 65.91074944 C-172.39671578 64.20576866 -178.47363212 62.49474486 -184.55007839 60.78199959 C-188.82877429 59.57744739 -193.11182763 58.38984327 -197.39794922 57.21191406 C-198.40208359 56.93312408 -199.40621796 56.65433411 -200.44078064 56.36709595 C-202.22854671 55.87080381 -204.01795072 55.3803536 -205.80934143 54.89730835 C-207.71746666 54.36376274 -209.60285026 53.74977078 -211.48046875 53.1171875 C-211.81046875 52.4571875 -212.14046875 51.7971875 -212.48046875 51.1171875 C-178.82216742 41.25057588 -145.1197535 31.54815664 -111.36523438 22.01611328 C-108.23043414 21.13065632 -105.09567861 20.24504123 -101.9609375 19.359375 C-100.80289423 19.03230497 -100.80289423 19.03230497 -99.62145615 18.69862747 C-89.06268697 15.7152299 -78.51757186 12.68798702 -67.98260307 9.6216526 C-63.82535743 8.41335896 -59.66574642 7.21323045 -55.50607777 6.01330853 C-52.26618184 5.07778939 -49.02894686 4.13469426 -45.79434204 3.18093872 C-42.25880801 2.13883146 -38.71813744 1.11628945 -35.17578125 0.09765625 C-33.65269096 -0.36004654 -33.65269096 -0.36004654 -32.09883118 -0.82699585 C-20.79307623 -4.03208261 -11.16947551 -3.31851077 0 0 Z " fill="#000000" transform="translate(273.48046875,2.8828125)"/>
<path d="M0 0 C8.83843624 1.53583028 17.41136939 3.97566324 26.03125 6.41796875 C27.6309582 6.86818445 29.2307636 7.31805493 30.83065796 7.76760864 C34.25993309 8.73195288 37.68854183 9.6986186 41.11663818 10.66714478 C46.56775963 12.20719855 52.02033192 13.74206953 57.47314453 15.27612305 C64.14115284 17.15240391 70.80882319 19.02987673 77.47605324 20.90892124 C94.31265771 25.65388237 111.15450388 30.38011583 127.99727249 35.10314274 C133.12728679 36.54170741 138.25709369 37.98100773 143.38667679 39.4211092 C165.58070454 45.65175141 187.78569125 51.84205389 210 58 C211.14517212 61.68145752 211.14517212 61.68145752 209.83862305 64.54833984 C209.23574463 65.50949707 208.63286621 66.4706543 208.01171875 67.4609375 C207.33351074 68.55833252 206.65530273 69.65572754 205.95654297 70.78637695 C205.2004585 71.982751 204.44410375 73.17895428 203.6875 74.375 C202.52046027 76.24727768 201.3574666 78.12202829 200.19470215 79.9969635 C199.38276533 81.30559855 198.56934191 82.61331228 197.7545166 83.92015076 C194.80173134 88.66601306 191.93466472 93.45693913 189.10546875 98.27734375 C188.30580753 99.63431394 187.50608488 100.99124792 186.70629883 102.34814453 C185.54968739 104.31141169 184.39610994 106.27611821 183.25253296 108.24700928 C172.86575229 126.12660898 172.86575229 126.12660898 164.125 129.4375 C163.36445313 129.74558594 162.60390625 130.05367187 161.8203125 130.37109375 C155.01054368 131.88961561 148.60918909 130.98478903 141.9921875 129.078125 C141.22269775 128.86654755 140.45320801 128.65497009 139.66040039 128.4369812 C137.06201047 127.71919481 134.46867208 126.98463674 131.875 126.25 C129.97697565 125.72159327 128.07869108 125.19412054 126.18017578 124.66748047 C120.70109657 123.14336982 115.22684948 121.60248232 109.75341797 120.05822754 C105.76731016 118.93439612 101.78027497 117.81390589 97.79296875 116.69433594 C85.75054105 113.3123593 73.70857437 109.92885545 61.6730957 106.5222168 C58.63237324 105.66177327 55.59160464 104.80149306 52.55078125 103.94140625 C51.80418055 103.73022093 51.05757984 103.51903561 50.28835487 103.30145073 C40.07311263 100.4136005 29.84601882 97.57414482 19.60546875 94.77734375 C16.16582465 93.83321578 12.72636926 92.88840277 9.28692627 91.94354248 C7.16300108 91.363201 5.03781814 90.78744013 2.91131592 90.21661377 C0.01187243 89.43827681 -2.88296481 88.64458396 -5.77734375 87.84765625 C-7.01760063 87.52232155 -7.01760063 87.52232155 -8.28291321 87.19041443 C-15.17211611 85.26671125 -21.76310027 82.15157655 -26.375 76.5 C-26.83648438 75.9534375 -27.29796875 75.406875 -27.7734375 74.84375 C-30.7597512 70.3547689 -31.3651058 66.28268275 -31.5 60.9375 C-31.5515625 59.72964844 -31.603125 58.52179688 -31.65625 57.27734375 C-30.79384983 46.52079059 -22.18664499 36.09090369 -16.625 27.0625 C-15.9006014 25.87852447 -15.17664192 24.69428015 -14.453125 23.50976562 C-12.30871146 20.00242034 -10.15514701 16.50075683 -8 13 C-7.22619688 11.74204941 -6.45243412 10.48407398 -5.67871094 9.22607422 C-3.78663639 6.15020544 -1.89359413 3.07493357 0 0 Z " fill="#000000" transform="translate(31,65)"/>
<path d="M0 0 C1.82421875 2.45825195 1.82421875 2.45825195 3.6875 5.73828125 C4.0270874 6.32704544 4.3666748 6.91580963 4.71655273 7.52241516 C5.82284554 9.44594621 6.9112867 11.37897424 8 13.3125 C8.7564302 14.63474357 9.51425035 15.95619292 10.2734375 17.27685547 C11.41945842 19.27084388 12.56454489 21.26530048 13.70483398 23.26257324 C17.52185205 29.94462837 21.49830293 36.52693179 25.5078125 43.0949707 C26.18457031 44.21198364 26.18457031 44.21198364 26.875 45.3515625 C27.26429688 45.98916504 27.65359375 46.62676758 28.0546875 47.28369141 C31.45406058 53.45559036 31.02719827 62.77998164 29.38671875 69.51953125 C26.725153 75.4640856 21.7300239 80.27524895 15.83798218 82.99971008 C6.60397895 86.2972177 -2.82946349 88.8650246 -12.2734375 91.48046875 C-14.17850572 92.01149464 -16.08346644 92.54290632 -17.98832703 93.07467651 C-23.06792376 94.49159658 -28.14896067 95.90328388 -33.23030472 97.31392288 C-38.48569106 98.77383707 -43.73973297 100.23857312 -48.99389648 101.70288086 C-57.38798766 104.0416895 -65.78281321 106.37784214 -74.17822266 108.71191406 C-84.64527991 111.6220859 -95.11026311 114.5396357 -105.57421875 117.4609375 C-108.42853264 118.25762405 -111.28286786 119.05423412 -114.13720703 119.85083008 C-115.14171276 120.13117143 -115.14171276 120.13117143 -116.16651154 120.41717625 C-122.95572397 122.31187562 -129.74509799 124.20598965 -136.53515625 126.09765625 C-137.55357101 126.38180389 -138.57198578 126.66595154 -139.6212616 126.95870972 C-140.54554459 127.21604889 -141.46982758 127.47338806 -142.42211914 127.73852539 C-143.21638809 127.95988663 -144.01065704 128.18124786 -144.82899475 128.40931702 C-153.07334138 130.65242318 -159.35749774 130.62215995 -167.4453125 127.55859375 C-174.60147475 123.19267825 -178.72128777 116.72102721 -182.75 109.5625 C-183.86617479 107.62701979 -184.98343429 105.69216488 -186.1015625 103.7578125 C-186.71161133 102.69594727 -187.32166016 101.63408203 -187.95019531 100.54003906 C-191.51819183 94.35530653 -195.18865094 88.23034784 -198.84094238 82.09518433 C-200.10844015 79.96532658 -201.37434982 77.83453396 -202.63964844 75.70336914 C-206.61517743 68.91637293 -206.61517743 68.91637293 -210.81201172 62.26782227 C-211.20404785 61.51944092 -211.59608398 60.77105957 -212 60 C-211.67 59.01 -211.34 58.02 -211 57 C-208.69813538 56.034729 -208.69813538 56.034729 -205.57836914 55.18847656 C-203.80843597 54.69819725 -203.80843597 54.69819725 -202.00274658 54.19801331 C-200.68026064 53.84538485 -199.35772891 53.49292807 -198.03515625 53.140625 C-196.64761097 52.76096117 -195.26039087 52.38010718 -193.87347412 51.99815369 C-190.86494627 51.172062 -187.85443828 50.35378458 -184.8421936 49.54135132 C-180.0086942 48.2373985 -175.18007779 46.91600443 -170.35229492 45.59106445 C-168.6831297 45.13316127 -167.01395541 44.67529113 -165.34477234 44.217453 C-164.50614843 43.9874227 -163.66752453 43.75739239 -162.80348778 43.52039146 C-160.20408502 42.80810623 -157.60422263 42.09752209 -155.00422668 41.3874054 C-137.32656736 36.55736234 -119.68100586 31.61464666 -102.03909302 26.65588379 C-97.691807 25.43412028 -93.3437943 24.2149674 -88.9954958 22.99681282 C-73.36921676 18.61910704 -57.7466432 14.23050207 -42.15125847 9.74379921 C-38.9785992 8.83155004 -35.8049965 7.92259152 -32.6315918 7.01293945 C-28.09199382 5.71136117 -23.55633686 4.39714099 -19.02270508 3.07495117 C-17.04912416 2.50783679 -15.07541869 1.94115555 -13.1015625 1.375 C-11.7845208 0.98475395 -11.7845208 0.98475395 -10.44087219 0.58662415 C-9.24158333 0.24597176 -9.24158333 0.24597176 -8.01806641 -0.1015625 C-7.33273834 -0.30088379 -6.64741028 -0.50020508 -5.9413147 -0.70556641 C-3.62933702 -1.05621738 -2.18122917 -0.83108823 0 0 Z " fill="#000000" transform="translate(482,66)"/>
<path d="M0 0 C0.33 0 0.66 0 1 0 C1 25.74 1 51.48 1 78 C-9.29445312 78.03867188 -9.29445312 78.03867188 -19.796875 78.078125 C-24.16279699 78.10331213 -28.52865099 78.12965951 -32.89453125 78.16015625 C-39.81364132 78.20837836 -46.73259386 78.25246553 -53.65185547 78.27099609 C-59.23470949 78.28621759 -64.81714946 78.32076057 -70.39981842 78.36830902 C-72.52225379 78.38306627 -74.6447483 78.39103774 -76.7672348 78.39188385 C-97.28768661 78.39278858 -97.28768661 78.39278858 -115.03125 87.96484375 C-127.18224873 100.52569759 -126.4614451 117.22770187 -126.51171875 133.515625 C-126.52859063 135.5835678 -126.54674419 137.6515005 -126.56611633 139.71942139 C-126.6133501 145.12466271 -126.64333102 150.52986307 -126.66955566 155.9352417 C-126.69949638 161.46602463 -126.74597988 166.99666678 -126.79101562 172.52734375 C-126.87674541 183.35148845 -126.94422468 194.17566236 -127 205 C-140.80384206 201.57532891 -154.5711295 198.02332752 -168.30642986 194.33277321 C-171.87203788 193.3750816 -175.43952134 192.42613378 -179.01245117 191.49609375 C-182.51803591 190.58332322 -186.01735935 189.64944841 -189.51334572 188.70060349 C-190.83296607 188.34630006 -192.15460576 187.99942413 -193.47824669 187.66044998 C-195.32246637 187.18671212 -197.15891198 186.68302042 -198.99487305 186.17822266 C-200.03693405 185.90160797 -201.07899506 185.62499329 -202.15263367 185.33999634 C-205.97010808 183.54345837 -208.32907226 181.8718814 -210 178 C-210.7207217 172.99949185 -210.63218979 168.03542511 -210.56762695 162.99853516 C-210.56621568 161.46072435 -210.56701002 159.92291017 -210.56983948 158.38510132 C-210.57127196 154.22000352 -210.54190996 150.05562812 -210.50696969 145.89069796 C-210.47567792 141.53454041 -210.47277323 137.17836564 -210.46684265 132.82211304 C-210.45131246 124.57731623 -210.41029527 116.33285158 -210.3600952 108.08820093 C-210.30417598 98.70013745 -210.27670877 89.31205797 -210.25161803 79.92386937 C-210.19937861 60.61572472 -210.11145246 41.30788908 -210 22 C-207.49209591 22.62261654 -204.98448408 23.24637285 -202.47702026 23.87075806 C-201.77784579 24.04421281 -201.07867132 24.21766756 -200.35830975 24.39637852 C-194.37548068 25.88766739 -188.4253907 27.48442694 -182.4871521 29.14482117 C-181.83032818 29.32820227 -181.17350426 29.51158337 -180.49677658 29.70052147 C-179.81979343 29.88958376 -179.14281029 30.07864605 -178.4453125 30.2734375 C-176.98894946 30.67850096 -175.53253734 31.083388 -174.07608032 31.4881134 C-170.21900188 32.56050757 -166.36265018 33.63549238 -162.50645447 34.71105576 C-159.30530205 35.60352998 -156.10369717 36.49437478 -152.90208435 37.38519573 C-130.75341005 43.54796382 -108.61095501 49.73311406 -86.47705078 55.94873047 C-85.51141205 56.21973068 -84.54577332 56.4907309 -83.5508728 56.76994324 C-81.77975357 57.26708247 -80.00876674 57.76469381 -78.23794556 58.26289368 C-77.46687469 58.47931015 -76.69580383 58.69572662 -75.90136719 58.91870117 C-75.23917175 59.10486496 -74.57697632 59.29102875 -73.89471436 59.48283386 C-61.57501856 62.84551989 -49.89857584 61.48487573 -38.8125 55.25 C-29.31019258 49.6166048 -24.15273105 40.90436639 -18.6875 31.625 C-17.93905748 30.3721794 -17.18970207 29.11990373 -16.43945312 27.86816406 C-13.1638815 22.39154696 -9.93088494 16.89001809 -6.70703125 11.3828125 C-6.00670776 10.18664307 -6.00670776 10.18664307 -5.29223633 8.96630859 C-4.44988324 7.52159268 -3.61224026 6.07411701 -2.7800293 4.62353516 C-1.87974265 3.06679369 -0.94444652 1.53035316 0 0 Z " fill="#000000" transform="translate(246,151)"/>
<path d="M0 0 C3.05420265 3.81775332 5.41689351 7.22144549 7.828125 11.41015625 C8.18082458 12.01830673 8.53352417 12.62645721 8.89691162 13.2530365 C10.01851202 15.18729783 11.13488853 17.12449147 12.25 19.0625 C26.74433809 45.38582036 26.74433809 45.38582036 51.79426575 60.56228638 C64.69475936 63.12230547 76.73824459 59.39667823 89.01953125 55.8203125 C90.9476325 55.27464262 92.87626043 54.73083081 94.80537415 54.18875122 C98.83929176 53.05195463 102.86983531 51.90417048 106.89801025 50.74719238 C112.84880692 49.03940837 118.8084178 47.36436002 124.77099609 45.69824219 C132.53789475 43.52607394 140.30270044 41.34673976 148.06445312 39.15625 C149.01835371 38.88706127 149.9722543 38.61787254 150.95506096 38.34052658 C154.86672604 37.23641333 158.77826326 36.1318481 162.68969727 35.0269165 C168.59756937 33.35805236 174.50598165 31.69112947 180.41520119 30.02704239 C183.12384165 29.2634374 185.83166811 28.49699468 188.53947449 27.73043823 C190.19513682 27.2639856 191.85084033 26.79767911 193.5065918 26.33154297 C194.23732407 26.1238176 194.96805634 25.91609222 195.72093201 25.70207214 C200.77717334 24.28327509 205.86388206 23.09334416 211 22 C211.11681093 42.23618365 211.20497721 62.47229887 211.25906086 82.70874977 C211.28484054 92.10493872 211.31998652 101.50091817 211.37719727 110.89697266 C211.4270395 119.0867592 211.45929273 127.27639402 211.47044247 135.46632802 C211.47695988 139.80276165 211.49227241 144.13876121 211.52865028 148.47505569 C211.56262293 152.55777483 211.57305056 156.63988167 211.56553841 160.72272873 C211.56691241 162.21992064 211.57683794 163.71713332 211.59602737 165.21420288 C211.75098043 177.9280165 211.75098043 177.9280165 208.86003113 181.79472351 C205.76270408 184.18297113 203.44070823 185.27101114 199.671875 186.28588867 C197.78335815 186.81124458 197.78335815 186.81124458 195.85668945 187.34721375 C194.4879285 187.70465147 193.11902825 188.06155617 191.75 188.41796875 C190.33048081 188.80396424 188.91146071 189.19179937 187.49291992 189.58137512 C183.76123047 190.60058924 180.02300688 191.59344108 176.28289795 192.58123779 C172.51864697 193.58089838 168.7617958 194.60760197 165.00390625 195.63085938 C152.71535743 198.96344885 140.42954406 202.22373833 128 205 C127.99413376 203.86153625 127.98826752 202.72307251 127.98222351 201.55010986 C127.92482264 190.78149386 127.85197119 180.01307643 127.76428509 169.24466324 C127.71970155 163.70951057 127.68041927 158.17442948 127.65356445 152.63916016 C127.62741122 147.28977465 127.58692481 141.94066636 127.53681374 136.59145355 C127.52022596 134.55833148 127.50866163 132.52516156 127.50238609 130.49198151 C127.54124042 108.90444153 127.54124042 108.90444153 118 90 C108.81927019 81.52659057 99.26124648 78.54736135 86.96044922 78.56762695 C86.01289261 78.5574353 85.065336 78.54724365 84.08906555 78.53674316 C80.99421098 78.50683641 77.89966703 78.49738154 74.8046875 78.48828125 C72.64420562 78.47141801 70.48373346 78.45326557 68.32327271 78.43388367 C62.6648258 78.38655638 57.0064183 78.35663544 51.34783936 78.33044434 C44.5435693 78.29528633 37.73945045 78.238323 30.93530273 78.18505096 C20.62355484 78.1067398 10.31200214 78.05598054 0 78 C0 52.26 0 26.52 0 0 Z " fill="#000000" transform="translate(265,151)"/>
</svg>
