<?xml version="1.0" encoding="UTF-8"?>
<svg version="1.1" xmlns="http://www.w3.org/2000/svg" width="512" height="512">
<path d="M0 0 C6.9521062 6.17964996 9.19325505 16.71505698 12.234375 25.28125 C12.74388597 26.70486866 13.25384207 28.12832809 13.76422119 29.55163574 C15.09694216 33.27194646 16.42366154 36.99436922 17.74908447 40.71728516 C19.10640384 44.5263753 20.46946844 48.33340808 21.83203125 52.140625 C24.49777123 59.59176374 27.15716575 67.0451467 29.8125 74.5 C30.52444465 72.61071439 31.21541073 70.71351472 31.89746094 68.81323242 C32.28448181 67.75762619 32.67150269 66.70201996 33.07025146 65.61442566 C34.27779223 60.54766464 32.45925834 57.23012755 30.0625 52.8125 C26.84776364 46.56450434 24.85099036 41.62802768 25.8125 34.5 C27.10848624 31.18803516 28.23032779 29.90207489 31.140625 27.89208984 C36.55443009 25.83959539 41.69432228 26.0718839 47.4375 26.1015625 C49.26788818 26.09725723 49.26788818 26.09725723 51.13525391 26.09286499 C53.71061671 26.090827 56.28599509 26.09633824 58.86132812 26.10888672 C62.7985299 26.12494303 66.73470508 26.10902786 70.671875 26.08984375 C73.17708559 26.09182623 75.68229555 26.09566999 78.1875 26.1015625 C79.9502124 26.09245346 79.9502124 26.09245346 81.74853516 26.0831604 C91.99254685 26.17111877 91.99254685 26.17111877 96.8125 29.5 C100.00861242 33.12226074 100.17471849 36.3562331 100.11962891 40.98095703 C99.46812941 46.32449581 96.70841789 51.10807548 94.3046875 55.86328125 C92.57693324 59.68221393 91.4898386 62.23608587 92.55474854 66.40750122 C92.94176941 67.36889008 93.32879028 68.33027893 93.72753906 69.32080078 C94.1110553 70.29542267 94.49457153 71.27004456 94.88970947 72.27420044 C95.19423035 73.00871429 95.49875122 73.74322815 95.8125 74.5 C96.04973785 73.83173691 96.28697571 73.16347382 96.53140259 72.47496033 C98.79285443 66.10648421 101.05721257 59.73904787 103.32465553 53.3727026 C104.48962953 50.10147279 105.65356513 46.82988205 106.81494141 43.55737305 C109.78377398 35.19384879 112.78140196 26.8411912 115.8125 18.5 C116.12844116 17.62241028 116.44438232 16.74482056 116.76989746 15.84063721 C117.54577492 13.70068136 118.34131119 11.56973055 119.1484375 9.44140625 C119.55368652 8.35674072 119.95893555 7.2720752 120.37646484 6.15454102 C122.38565891 2.44050377 125.06752742 0.37248629 128.8125 -1.5 C133.76441701 -1.79653804 137.38227603 -1.22356989 141.97436523 0.60424805 C143.75134544 1.30152763 143.75134544 1.30152763 145.56422424 2.01289368 C146.85412296 2.53306546 148.14390927 3.05351603 149.43359375 3.57421875 C150.80115753 4.11636095 152.16912353 4.65748945 153.53746033 5.19767761 C157.21031441 6.65118743 160.87705168 8.11957312 164.54280853 9.59087372 C168.31423858 11.10152229 172.09136159 12.59780517 175.86767578 14.09619141 C183.63432498 17.1814161 191.39072506 20.291729 199.14379883 23.41088867 C203.12899724 25.01388157 207.11714215 26.60941162 211.1059351 28.20343494 C214.25031869 29.46153906 217.39253465 30.72498925 220.5342083 31.98984337 C222.00391059 32.58053755 223.47437517 33.16933961 224.94569588 33.75599098 C252.69849557 44.8295875 273.35720506 58.36289661 285.95507812 86.43310547 C292.41404321 102.00303667 291.97375162 118.5210555 291.98046875 135.0546875 C291.98368845 136.92888412 291.98705304 138.8030805 291.99055481 140.67727661 C291.99650633 144.58205753 291.9983985 148.48681643 291.99780273 152.39160156 C291.99770058 157.38815443 292.011425 162.38456689 292.02857494 167.38108635 C292.0396957 171.24157357 292.04172202 175.10202663 292.04119301 178.96252823 C292.04237022 180.80527359 292.04677742 182.64801991 292.05452538 184.49074936 C292.06433991 187.06278159 292.06144298 189.63450561 292.05541992 192.20654297 C292.06103943 192.96093155 292.06665894 193.71532013 292.07244873 194.49256897 C292.03621653 200.59197498 291.58497742 204.70951872 287.20386213 209.13513499 C283.74057024 211.90464795 280.52372227 212.20356963 276.1908884 212.13199902 C275.43980135 212.13956582 274.68871429 212.14713262 273.91486701 212.15492871 C271.39542661 212.17419509 268.8774912 212.15783683 266.35804749 212.14164734 C264.5346875 212.14812413 262.71133417 212.1567775 260.88799375 212.16742164 C255.87541941 212.19026776 250.86330839 212.18183916 245.85071814 212.16828239 C240.44569168 212.15904233 235.04075826 212.17850798 229.63575745 212.19425964 C219.04625508 212.22037473 208.45692233 212.21925071 197.8674 212.20822146 C189.26203687 212.19966987 180.65672289 212.20048842 172.05135918 212.20801735 C170.21554567 212.20959968 170.21554567 212.20959968 168.34264503 212.21121398 C165.85650034 212.21338486 163.37035566 212.21557164 160.884211 212.21777413 C137.560055 212.23721384 114.23599425 212.22519668 90.91184603 212.20298818 C70.8924068 212.18473754 50.87318176 212.1956388 30.85375977 212.22729492 C7.61569903 212.26403841 -15.62224651 212.28108594 -38.86033636 212.26788265 C-41.3377387 212.26654152 -43.81514105 212.26523254 -46.29254341 212.26395607 C-47.51152524 212.2633254 -48.73050707 212.26269474 -49.98642774 212.26204496 C-58.58238127 212.25901497 -67.17824807 212.27029016 -75.77418327 212.28720665 C-86.24858594 212.30750896 -96.72272829 212.30669652 -107.19711726 212.27857425 C-112.54286168 212.26477968 -117.88815133 212.26066502 -123.23387909 212.28252411 C-128.1262128 212.30226523 -133.01768971 212.29438109 -137.90996379 212.26432977 C-139.68109051 212.25831431 -141.45228642 212.26245397 -143.22335779 212.277693 C-158.1158546 212.39650858 -158.1158546 212.39650858 -162.72831345 208.6007843 C-165.18394091 205.50448765 -166.08253869 204.35989579 -166.1875 200.5 C-166.23162521 199.27222336 -166.27575043 198.04444672 -166.32121277 196.77946472 C-166.33015387 195.31418034 -166.33364708 193.84885631 -166.33276367 192.38354492 C-166.33780159 191.1774205 -166.33780159 191.1774205 -166.34294128 189.94692993 C-166.35242844 187.29142705 -166.35439407 184.63598752 -166.35546875 181.98046875 C-166.35868569 180.12022374 -166.36205009 178.25997898 -166.36555481 176.3997345 C-166.37154251 172.49508072 -166.37339536 168.59044906 -166.37280273 164.68579102 C-166.37270178 159.72477175 -166.38628633 154.76389776 -166.40357494 149.80291271 C-166.41479889 145.95487339 -166.41671869 142.10686786 -166.41619301 138.25881386 C-166.41736014 136.43270688 -166.42170917 134.60659866 -166.42952538 132.78050804 C-166.54106821 103.99960415 -161.6012108 78.34480102 -140.8515625 57.109375 C-130.33906022 47.10718836 -118.07579522 41.23243993 -104.77734375 35.95703125 C-103.29787409 35.36005471 -101.81879363 34.76211289 -100.34007263 34.1632843 C-96.42723136 32.58261897 -92.50845993 31.01725617 -88.58766937 29.45642853 C-86.19687954 28.50373759 -83.80757268 27.54742499 -81.41876221 26.58978271 C-71.01790435 22.42040281 -60.60551616 18.28059712 -50.18774414 14.15368652 C-46.86665818 12.83739232 -43.54649371 11.51878227 -40.22633457 10.2001524 C-37.00367536 8.92039374 -33.78065819 7.64153886 -30.55750847 6.36301613 C-29.03319534 5.75834865 -27.50894935 5.15351192 -25.98477364 4.54849815 C-23.88675262 3.71596573 -21.78829648 2.88454048 -19.68969727 2.0534668 C-17.90826073 1.34736519 -17.90826073 1.34736519 -16.09083557 0.6269989 C-10.30216732 -1.62001065 -5.8492183 -2.75257332 0 0 Z M128.9375 119.5 C126.45633879 123.91095327 126.63498374 128.16331044 126.609375 133.078125 C126.60367493 133.92292419 126.59797485 134.76772339 126.59210205 135.63812256 C126.582657 137.42686717 126.57612003 139.21562914 126.57226562 141.00439453 C126.56258572 143.72589984 126.53156878 146.44664147 126.5 149.16796875 C126.49346694 150.9088497 126.48821766 152.64973603 126.484375 154.390625 C126.4720282 155.19816223 126.4596814 156.00569946 126.44696045 156.83770752 C126.46757053 162.12979608 127.15392985 165.87394306 129.8125 170.5 C134.01136227 173.85383928 138.01109838 173.93942127 143.17944336 173.91992188 C144.0093428 173.92839142 144.83924225 173.93686096 145.69429016 173.94558716 C148.43046503 173.968936 151.1660769 173.96997986 153.90234375 173.96875 C155.80896733 173.97585264 157.71558877 173.98355179 159.62220764 173.99182129 C163.61595605 174.00526107 167.6095068 174.00683701 171.60327148 174.00097656 C176.71580855 173.99507963 181.82739627 174.02567406 186.93974972 174.06609344 C190.87664379 174.09196886 194.81330918 174.09484803 198.75027657 174.09120178 C200.63490752 174.09289304 202.51954904 174.10253617 204.4040966 174.12034607 C207.04209451 174.14253419 209.67816961 174.13283579 212.31616211 174.11523438 C213.09089874 174.12849762 213.86563538 174.14176086 214.66384888 174.15542603 C220.34776662 174.06750657 222.83404444 172.56500159 226.8125 168.5 C227.95557536 166.21384928 227.96229125 164.87199289 228.00537109 162.32910156 C228.02946548 161.03700775 228.02946548 161.03700775 228.05404663 159.71881104 C228.09854546 155.7725097 228.13957333 151.82637654 228.16259766 147.87988281 C228.17914315 145.80034178 228.2064145 143.72085728 228.24462891 141.64160156 C228.2994893 138.64097637 228.32128701 135.64168467 228.3359375 132.640625 C228.36994156 131.2528183 228.36994156 131.2528183 228.40463257 129.8369751 C228.39081403 125.59932109 228.26358333 122.44898765 225.65478516 118.99121094 C220.61753363 114.57615214 215.47626875 114.20258707 208.99047852 114.2253418 C208.23031433 114.22023087 207.47015015 114.21511993 206.68695068 114.20985413 C204.18835451 114.19601882 201.69003604 114.19691022 199.19140625 114.19921875 C197.44555052 114.19532864 195.69969574 114.19099332 193.95384216 114.18623352 C190.29984464 114.17878446 186.64594377 114.17905316 182.99194336 114.18432617 C178.3203114 114.19012073 173.64907593 114.17318384 168.9775095 114.1499815 C165.37344569 114.13521698 161.7694768 114.13437613 158.16538811 114.13749123 C156.44348299 114.13697944 154.72157237 114.13176851 152.99969673 114.12167931 C150.58751105 114.10927843 148.17609037 114.1161278 145.76391602 114.12768555 C145.05980087 114.12004181 144.35568573 114.11239807 143.63023376 114.10452271 C137.97962673 114.16406442 132.91573866 115.25654543 128.9375 119.5 Z " fill="#000000" transform="translate(193.1875,300.5)"/>
<path d="M0 0 C0.67772461 0.21430664 1.35544922 0.42861328 2.05371094 0.64941406 C25.99871622 8.43465714 48.10830203 22.13725164 60 45 C68.36647139 62.68484472 71.15578168 81.15789749 71.46276855 100.56243896 C71.72085261 115.73839049 71.72085261 115.73839049 72.75 130.875 C72.79962891 131.56819336 72.84925781 132.26138672 72.90039062 132.97558594 C73.28199726 136.42966093 73.79031789 137.80716121 76.3828125 140.19140625 C77.67832031 141.08666016 77.67832031 141.08666016 79 142 C86.54054802 150.77413997 88.64971259 160.84953072 88.33984375 172.203125 C86.93978224 187.84519148 81.54111347 204.58721207 70.40625 216.09765625 C63.94038179 221.20947089 56.2074089 225.00213874 48 226 C47.76023437 226.81855469 47.52046875 227.63710937 47.2734375 228.48046875 C38.66512426 252.27215657 20.73415379 276.62393878 -2.296875 287.56640625 C-5.49927385 288.87470334 -8.69476691 289.98085316 -12 291 C-12.99386719 291.31839844 -13.98773438 291.63679688 -15.01171875 291.96484375 C-32.28969474 296.57655444 -52.08708818 295.55240302 -69 290 C-70.06992188 289.649375 -71.13984375 289.29875 -72.2421875 288.9375 C-95.94671522 280.07139093 -108.87192562 259.25524671 -120.6875 238.125 C-121.1095874 237.37025391 -121.5316748 236.61550781 -121.96655273 235.83789062 C-123.75927087 232.55541736 -125.20276732 229.6771152 -126 226 C-127.258125 225.79375 -128.51625 225.5875 -129.8125 225.375 C-140.03358525 223.04472113 -148.09229553 217.6259734 -154 209 C-163.28718993 194.01453887 -168.72276424 176.19381833 -165.33984375 158.55859375 C-163.08569233 150.13724017 -159.38821104 142.92547403 -152 138 C-150.42900817 134.28674658 -150.37762824 129.94394279 -151 126 C-152.10770988 123.35885593 -153.40286057 120.88563526 -154.7578125 118.36328125 C-161.56547607 105.41159427 -159.42637442 88.66431203 -155.42456055 75.09301758 C-153.02368561 67.61841492 -149.63528627 61.30565971 -145 55 C-144.55140625 54.34515625 -144.1028125 53.6903125 -143.640625 53.015625 C-137.51992787 44.87869823 -126.87614521 39.78365164 -117 38 C-114.27413604 37.80466121 -111.73697742 37.8479457 -109 38 C-108.73316406 37.26265625 -108.46632812 36.5253125 -108.19140625 35.765625 C-101.44813249 20.11238623 -84.20742474 8.28735214 -69 2 C-46.84920092 -5.63449871 -22.5323872 -7.26031309 0 0 Z " fill="#000000" transform="translate(295,4)"/>
</svg>
