<?xml version="1.0" encoding="UTF-8"?>
<svg version="1.1" xmlns="http://www.w3.org/2000/svg" width="512" height="512">
<path d="M0 0 C3.67267605 1.31028689 6.37490637 2.91868764 9.4375 5.3125 C27.32498632 18.01367372 50.00234776 16.30893202 70.87385941 16.26865101 C74.37416121 16.26351836 77.87445354 16.26830232 81.37475586 16.27142334 C87.24822908 16.27504214 93.12165169 16.27031915 98.99511719 16.26074219 C105.74515942 16.24986168 112.49508074 16.25338875 119.24512005 16.264395 C125.08426019 16.27352783 130.92336435 16.2747241 136.76250935 16.26951766 C140.23084298 16.26643065 143.69912015 16.26589693 147.16744995 16.27259064 C172.31906742 16.31433623 193.30459106 15.77938987 214 0 C217.19910076 1.49980936 220.01609027 3.3312131 222.9375 5.3125 C238.30283781 15.08119159 254.4046034 16.32102138 272.15625 16.265625 C273.55619371 16.26697897 274.95613696 16.26892551 276.3560791 16.27142334 C279.26363687 16.27434031 282.1710702 16.27018937 285.07861328 16.26074219 C288.75929937 16.24934971 292.43969351 16.25592787 296.12036896 16.26788712 C299.00329693 16.2751996 301.8861585 16.27277537 304.76908875 16.26763153 C306.77106929 16.26569529 308.77305268 16.27164565 310.77502441 16.27789307 C321.74473119 16.2226474 332.19552133 14.80798091 343 13 C343.11414078 43.91390525 343.20258841 74.82775462 343.25532665 105.74182066 C343.26157994 109.39412427 343.26805158 113.04642747 343.2746582 116.69873047 C343.27596976 117.42581737 343.27728131 118.15290427 343.2786326 118.90202411 C343.30037043 130.66441167 343.33978293 142.42667666 343.38576398 154.18899159 C343.43257395 166.26434474 343.46030497 178.33963384 343.47044247 190.41507399 C343.47667868 197.19512982 343.49163784 203.97493037 343.52865028 210.75489426 C343.56263634 217.13902309 343.57304738 223.52276027 343.56553841 229.90697098 C343.56691175 232.24745056 343.57682816 234.58794349 343.59602737 236.92834473 C343.62100542 240.13079735 343.61488688 243.33178272 343.60127258 246.53427124 C343.61583679 247.45453421 343.630401 248.37479718 343.64540654 249.32294691 C343.56813709 256.07451871 341.78658813 261.37661777 338 267 C333.85295603 270.96920684 329.6074413 273.12602558 323.85145283 273.12304783 C323.00249795 273.12503888 322.15354308 273.12702993 321.2788623 273.12908131 C319.87955585 273.12471205 319.87955585 273.12471205 318.45198059 273.12025452 C317.46119765 273.12110894 316.4704147 273.12196337 315.44960803 273.12284368 C312.11458058 273.12449676 308.77960293 273.11897989 305.44458008 273.11352539 C303.05993145 273.11324346 300.67528273 273.11340138 298.29063416 273.1139679 C292.47770583 273.11422572 286.66479394 273.10988098 280.85186938 273.10353024 C274.08891363 273.09638814 267.32596023 273.09488563 260.56300124 273.09374207 C248.50203967 273.09155264 236.44108485 273.08489552 224.38012695 273.07543945 C212.6630049 273.06626251 200.94588468 273.05918305 189.22875977 273.05493164 C188.50669501 273.05466892 187.78463025 273.05440619 187.04068474 273.05413551 C183.41835141 273.05283049 179.79601807 273.05156677 176.17368472 273.05032361 C146.11578508 273.0399544 116.05789333 273.0222648 86 273 C85.99853344 271.99208908 85.99706688 270.98417816 85.99555588 269.94572449 C85.95895409 245.41628842 85.8994955 220.88698882 85.81609726 196.35766602 C85.77629506 184.49544041 85.74390852 172.63328126 85.72900391 160.77099609 C85.71599357 150.43132129 85.68904455 140.09179263 85.64538693 129.75220013 C85.6227584 124.27790269 85.60709017 118.80378561 85.60811615 113.32943726 C85.60886193 108.17477274 85.59094388 103.02050713 85.55883217 97.86594582 C85.55032704 95.97618237 85.5485874 94.08637422 85.55419731 92.19659996 C85.56084953 89.61090865 85.54288811 87.02648201 85.51898193 84.44091797 C85.52674235 83.69770389 85.53450277 82.9544898 85.54249835 82.18875408 C85.4446837 76.18912662 83.68449833 70.98984148 79.6236093 66.46705437 C73.1207374 60.64351676 66.24688607 60.70221475 57.99682617 60.70947266 C56.8984996 60.70275543 55.80017303 60.69603821 54.66856384 60.68911743 C51.04331926 60.67014405 47.41825988 60.66621351 43.79296875 60.6640625 C41.26719589 60.65763406 38.74142377 60.65090567 36.21565247 60.64389038 C30.92231215 60.6319192 25.62904057 60.6281236 20.33569336 60.62939453 C14.23487941 60.630595 8.13441976 60.60950645 2.0336954 60.5779072 C-3.85455652 60.54850548 -9.74266928 60.54142109 -15.63098717 60.54261398 C-18.12716811 60.54025845 -20.62335185 60.5314377 -23.11948586 60.51594925 C-26.61616775 60.49628417 -30.11194513 60.50213036 -33.60864258 60.51416016 C-34.63284302 60.50292114 -35.65704346 60.49168213 -36.71228027 60.48010254 C-43.70021294 60.54098188 -50.19522802 61.61725693 -55.58807087 66.41192055 C-60.43917267 71.89627023 -61.29674259 76.97947128 -61.2784729 84.08015442 C-61.2842653 84.88888636 -61.2900577 85.6976183 -61.29602563 86.53085726 C-61.31301615 89.23781582 -61.31590132 91.94460378 -61.31884766 94.65161133 C-61.32814648 96.5932151 -61.33831509 98.53481488 -61.34928894 100.47640991 C-61.37660809 105.74659842 -61.39174407 111.01676017 -61.40471697 116.28700089 C-61.42033909 121.79501814 -61.44713225 127.30298066 -61.4727478 132.81095886 C-61.51955183 143.24077416 -61.55628811 153.67059972 -61.58942068 164.10046643 C-61.62763056 175.97463453 -61.6770437 187.8487477 -61.72740483 199.72286952 C-61.83074887 224.14853898 -61.92000126 248.57424371 -62 273 C-69.010834 273.07618093 -76.02156089 273.12865495 -83.03271484 273.16479492 C-85.41687001 273.179864 -87.80099753 273.20032291 -90.18505859 273.22631836 C-93.61562937 273.26278337 -97.045833 273.27974552 -100.4765625 273.29296875 C-101.53928375 273.30845261 -102.602005 273.32393646 -103.69692993 273.33988953 C-110.73572077 273.34148354 -115.09144331 272.42379724 -120.625 267.8125 C-126.23750243 261.16611555 -127.5889551 255.35396898 -127.48101807 246.77478027 C-127.48443577 245.7715581 -127.48785347 244.76833592 -127.49137473 243.73471308 C-127.49794113 240.38730058 -127.47599732 237.04069748 -127.45410156 233.69335938 C-127.45297282 231.28826924 -127.45360747 228.88317772 -127.45587158 226.47808838 C-127.45689962 220.63432816 -127.43958637 214.79083121 -127.41412094 208.9471311 C-127.38547129 202.14452058 -127.37953547 195.34194693 -127.37496826 188.53928453 C-127.36622456 176.4089467 -127.33963418 164.27871678 -127.30175781 152.1484375 C-127.26501372 140.36849506 -127.23671372 128.58858197 -127.21972656 116.80859375 C-127.21867567 116.08186862 -127.21762477 115.35514348 -127.21654204 114.60639638 C-127.2113217 110.96044825 -127.20626691 107.31449992 -127.20129442 103.66855145 C-127.1598612 73.44562373 -127.08913968 43.22282687 -127 13 C-126.40633286 13.08892916 -125.81266573 13.17785833 -125.20100868 13.26948231 C-122.47029503 13.67609375 -119.73869786 14.07644814 -117.00704956 14.47673035 C-115.60661171 14.68667987 -115.60661171 14.68667987 -114.17788219 14.9008708 C-106.15782718 16.06866117 -98.36826099 16.42226574 -90.2578125 16.36328125 C-88.86644491 16.36275899 -87.47507659 16.36329071 -86.08370972 16.36479187 C-83.2119398 16.36470367 -80.34045955 16.35458764 -77.46875 16.33618164 C-73.83529828 16.31336963 -70.20226192 16.31299069 -66.56875801 16.31969929 C-63.71156277 16.32307783 -60.85445803 16.31633918 -57.99728012 16.30657005 C-56.02188616 16.30099727 -54.04647676 16.30213488 -52.07107544 16.30354309 C-34.40247577 16.1668889 -14.7245928 14.10479053 -1.2265625 1.3203125 C-0.82179688 0.88460937 -0.41703125 0.44890625 0 0 Z M133.19140625 69.12109375 C130.23545658 73.78277175 129.74214097 77.75134263 129.70947266 83.23364258 C129.69939682 84.2981086 129.69939682 84.2981086 129.68911743 85.38407898 C129.67018119 87.72096843 129.66621533 90.05756993 129.6640625 92.39453125 C129.65763092 94.0273195 129.6509023 95.6601066 129.64389038 97.29289246 C129.63192813 100.71327382 129.62820841 104.13355428 129.62939453 107.55395508 C129.62959752 111.92184022 129.60231154 116.28907328 129.56785011 120.65680408 C129.5455341 124.02930125 129.54155844 127.40164274 129.54261398 130.77420616 C129.54026448 132.38365612 129.53147778 133.9931108 129.51594925 135.60248756 C129.38684669 148.73029175 129.38684669 148.73029175 135.7109375 160.0234375 C136.26007813 160.46945312 136.80921875 160.91546875 137.375 161.375 C137.91898437 161.83648437 138.46296875 162.29796875 139.0234375 162.7734375 C145.03514281 166.50402143 151.16788518 166.29654062 158.00317383 166.29052734 C159.1015004 166.29724457 160.19982697 166.30396179 161.33143616 166.31088257 C164.95668074 166.32985595 168.58174012 166.33378649 172.20703125 166.3359375 C174.73280411 166.34236594 177.25857623 166.34909433 179.78434753 166.35610962 C185.07768785 166.3680808 190.37095943 166.3718764 195.66430664 166.37060547 C201.76512059 166.369405 207.86558024 166.39049355 213.9663046 166.4220928 C219.85455652 166.45149452 225.74266928 166.45857891 231.63098717 166.45738602 C234.12716811 166.45974155 236.62335185 166.4685623 239.11948586 166.48405075 C242.61616775 166.50371583 246.11194513 166.49786964 249.60864258 166.48583984 C250.63284302 166.49707886 251.65704346 166.50831787 252.71228027 166.51989746 C259.92360273 166.45707193 266.43748066 165.31057975 271.88323689 160.24994469 C276.85205861 154.85535497 278.24677188 150.10927003 278.29052734 142.76635742 C278.29724457 142.05671341 278.30396179 141.3470694 278.31088257 140.61592102 C278.32981881 138.27903157 278.33378467 135.94243007 278.3359375 133.60546875 C278.34236908 131.9726805 278.3490977 130.3398934 278.35610962 128.70710754 C278.36807187 125.28672618 278.37179159 121.86644572 278.37060547 118.44604492 C278.37040248 114.07815978 278.39768846 109.71092672 278.43214989 105.34319592 C278.4544659 101.97069875 278.45844156 98.59835726 278.45738602 95.22579384 C278.45973552 93.61634388 278.46852222 92.0068892 278.48405075 90.39751244 C278.61315331 77.26970825 278.61315331 77.26970825 272.2890625 65.9765625 C271.73992187 65.53054688 271.19078125 65.08453125 270.625 64.625 C270.08101562 64.16351563 269.53703125 63.70203125 268.9765625 63.2265625 C262.96485719 59.49597857 256.83211482 59.70345938 249.99682617 59.70947266 C248.8984996 59.70275543 247.80017303 59.69603821 246.66856384 59.68911743 C243.04331926 59.67014405 239.41825988 59.66621351 235.79296875 59.6640625 C233.26719589 59.65763406 230.74142377 59.65090567 228.21565247 59.64389038 C222.92231215 59.6319192 217.62904057 59.6281236 212.33569336 59.62939453 C206.23487941 59.630595 200.13441976 59.60950645 194.0336954 59.5779072 C188.14544348 59.54850548 182.25733072 59.54142109 176.36901283 59.54261398 C173.87283189 59.54025845 171.37664815 59.5314377 168.88051414 59.51594925 C165.38383225 59.49628417 161.88805487 59.50213036 158.39135742 59.51416016 C157.36715698 59.50292114 156.34295654 59.49168213 155.28771973 59.48010254 C146.04236675 59.56064868 139.127196 61.83241745 133.19140625 69.12109375 Z " fill="#000000" transform="translate(148,239)"/>
<path d="M0 0 C168.96 0 337.92 0 512 0 C512 40.00596421 512 40.00596421 500.03515625 53.16015625 C491.53036621 61.38811769 481.1270608 65.14271615 469.45263672 65.16113281 C468.69758347 65.16609772 467.94253021 65.17106262 467.16459656 65.17617798 C464.66961752 65.19076637 462.17470216 65.19759765 459.6796875 65.203125 C457.93816121 65.20888116 456.19663492 65.21463884 454.45510864 65.22039795 C450.80177517 65.23089987 447.14846363 65.23674717 443.49511719 65.24023438 C438.83495864 65.24570369 434.17509454 65.26970153 429.515028 65.29820633 C425.91514264 65.31692151 422.31532677 65.32204311 418.71539688 65.32357025 C416.9987541 65.32657958 415.28211204 65.33454938 413.56551743 65.34775543 C397.92646408 65.45943712 385.66640513 63.27194081 373.75 52.375 C368.57058904 46.94344733 365.35740173 40.07220518 363 33 C362.57589844 33.9178125 362.15179688 34.835625 361.71484375 35.78125 C355.90118952 48.07743045 349.20766159 57.54853459 336.00411797 62.79272556 C328.59226878 65.28514645 321.60593298 65.43112989 313.83642578 65.40405273 C312.43571431 65.40976702 311.03500748 65.41673534 309.63430786 65.42485046 C305.85728719 65.44268151 302.08050011 65.44163248 298.30345011 65.43590808 C295.13775452 65.43280119 291.97210284 65.43892534 288.80641353 65.44494683 C281.33135387 65.4589578 273.85640857 65.45745979 266.38134766 65.44604492 C258.69797438 65.43457042 251.01495045 65.44863581 243.3316232 65.4754414 C236.7087587 65.49767273 230.08600325 65.50421901 223.46310413 65.49836498 C219.51909123 65.4950115 215.57530209 65.49730223 211.63132095 65.51461601 C207.91942518 65.53020209 204.20804258 65.52600235 200.49616623 65.50731087 C198.50423101 65.50193013 196.51227209 65.51605035 194.52038574 65.53100586 C181.42478581 65.4248958 170.72791881 61.9359377 161 53 C155.71065869 46.9728178 151.81457062 40.49934934 149 33 C148.61521484 34.12535156 148.61521484 34.12535156 148.22265625 35.2734375 C143.59719402 47.63915133 135.78425542 56.00963679 124.0546875 61.9921875 C118.18668627 64.65946079 112.73958048 65.15260331 106.37084961 65.17700195 C105.24286957 65.18685875 105.24286957 65.18685875 104.09210205 65.19691467 C101.61218141 65.21656487 99.13232123 65.22829447 96.65234375 65.23828125 C95.80033449 65.24235678 94.94832523 65.2464323 94.07049751 65.25063133 C89.55684785 65.27146125 85.04322827 65.28577377 80.52954102 65.29516602 C75.89530188 65.30619751 71.26154723 65.34056832 66.6274786 65.38033772 C63.0403817 65.40663912 59.45339766 65.41486998 55.86621284 65.41844749 C54.15957954 65.42328205 52.45295019 65.43480528 50.74641228 65.45348549 C35.79513323 65.60691737 23.22222025 63.55394342 11.84375 53 C-3.10123044 37.38584133 0 22.05978989 0 0 Z " fill="#000000" transform="translate(0,170)"/>
<path d="M0 0 C0.95018005 0.00359528 1.90036011 0.00719055 2.8793335 0.01089478 C4.37184883 0.01067574 4.37184883 0.01067574 5.89451599 0.01045227 C9.20059348 0.01115186 12.5066154 0.01894637 15.81268311 0.02676392 C18.09811879 0.02862793 20.38355487 0.03005191 22.66899109 0.03105164 C28.69751073 0.03487809 34.72600644 0.04470947 40.7545166 0.05575562 C46.90085527 0.06596699 53.04719778 0.07054867 59.19354248 0.07559204 C71.26321447 0.08633162 83.33286868 0.10340957 95.40252686 0.12442017 C96.79474137 4.10221764 97.87860065 8.00295237 98.70602417 12.13397217 C98.94436981 13.31442108 99.18271545 14.49487 99.42828369 15.71109009 C99.68291382 16.99233765 99.93754395 18.27358521 100.19989014 19.59365845 C100.47572547 20.96741013 100.75188763 22.34109622 101.02835083 23.71472168 C101.77560614 27.43281106 102.51801414 31.15185277 103.25932932 34.87113047 C104.0364345 38.76680299 104.81730154 42.66172171 105.5975647 46.5567627 C106.90657647 53.09455204 108.21234953 59.63298217 109.51629639 66.17178345 C111.02379598 73.73106957 112.53684551 81.28922912 114.05276692 88.84683049 C115.35499318 95.3398132 116.65422201 101.8333904 117.95094478 108.32747447 C118.72509454 112.20445835 119.50028142 116.08122701 120.27817154 119.95746231 C121.00888312 123.59946979 121.73583012 127.24220877 122.4598732 130.88554764 C122.85329668 132.86047948 123.25050943 134.83465529 123.64782715 136.80880737 C123.88053314 137.98361664 124.11323914 139.1584259 124.35299683 140.36883545 C124.55688082 141.38976351 124.76076481 142.41069157 124.9708271 143.46255684 C125.40252686 146.12442017 125.40252686 146.12442017 125.40252686 150.12442017 C71.94252686 150.12442017 18.48252686 150.12442017 -36.59747314 150.12442017 C-36.00874714 144.82588612 -35.45276201 139.90054795 -34.42095947 134.73391724 C-34.18543365 133.54500885 -33.94990784 132.35610046 -33.70724487 131.13116455 C-33.45059052 129.85598969 -33.19393616 128.58081482 -32.92950439 127.26699829 C-32.65480335 125.8880637 -32.38042885 124.50906402 -32.10635376 123.13000488 C-31.36614976 119.41085902 -30.62113404 115.69269271 -29.87499619 111.97473335 C-29.09373561 108.07859816 -28.31624647 104.1817101 -27.53814697 100.28494263 C-26.23288766 93.75138732 -24.92440097 87.21848446 -23.61407471 80.6859436 C-22.09785818 73.12669623 -20.58722344 65.56634906 -19.07943058 58.00541735 C-17.7837195 51.50874102 -16.48502645 45.01266608 -15.18381405 38.51708937 C-14.40698867 34.63920656 -13.63121179 30.76112185 -12.85812378 26.88249207 C-12.13272571 23.24398981 -11.40359983 19.60625464 -10.67152786 15.96908951 C-10.27435115 13.99105598 -9.88098233 12.01225906 -9.48770142 10.03344727 C-9.2521756 8.86709747 -9.01664978 7.70074768 -8.77398682 6.49905396 C-8.5697258 5.47925697 -8.36546478 4.45945999 -8.15501404 3.40876007 C-7.03014232 -1.20003077 -4.2504665 0.00679716 0 0 Z " fill="#000000" transform="translate(211.59747314453125,-0.124420166015625)"/>
<path d="M0 0 C13.55204186 -0.11595212 27.10396532 -0.20474554 40.65640259 -0.25906086 C46.94966173 -0.28513218 53.24258099 -0.32048643 59.53564453 -0.37719727 C65.61108736 -0.43160312 71.68620366 -0.46143908 77.76187134 -0.47438622 C80.07749571 -0.48361055 82.39310262 -0.50162368 84.70858765 -0.52865028 C87.95715678 -0.56505313 91.20438407 -0.56994045 94.453125 -0.56762695 C95.88272301 -0.59459152 95.88272301 -0.59459152 97.34120178 -0.62210083 C105.34376128 -0.56060818 109.98440937 2.19967533 115.76000977 7.56298828 C119.17389789 12.0760594 120.34087708 17.62550762 121.83984375 22.9921875 C122.21280151 24.28487218 122.58712364 25.57716381 122.96263123 26.86911011 C123.82508461 29.84775081 124.67733005 32.82910562 125.52362061 35.81237793 C127.17403641 41.62460696 128.85535557 47.42779575 130.53564453 53.23144531 C133.87653771 64.78317487 137.19039612 76.34252272 140.49633789 87.90429688 C142.23648442 93.98928497 143.98341042 100.07230615 145.7317667 106.15493965 C147.08641549 110.87211794 148.43636477 115.59063143 149.7849865 120.30953598 C150.42796554 122.55635089 151.07269066 124.80266689 151.71920967 127.04846573 C152.61408485 130.15868062 153.50233173 133.27071407 154.38891602 136.38330078 C154.65529877 137.30361588 154.92168152 138.22393097 155.19613647 139.1721344 C155.43555466 140.01776443 155.67497284 140.86339447 155.92164612 141.73464966 C156.13118707 142.46630404 156.34072802 143.19795841 156.55661869 143.95178413 C157 146 157 146 157 150 C115.09 150 73.18 150 30 150 C28.62322686 145.86968057 27.54029207 142.20317652 26.69650269 137.990448 C26.33898422 136.21977463 26.33898422 136.21977463 25.97424316 134.41333008 C25.71961304 133.13208252 25.46498291 131.85083496 25.20263672 130.53076172 C24.92680139 129.15701004 24.65063922 127.78332395 24.37417603 126.40969849 C23.62692071 122.69160911 22.88451271 118.97256739 22.14319754 115.2532897 C21.36609235 111.35761717 20.58522531 107.46269846 19.80496216 103.56765747 C18.49595039 97.02986812 17.19017733 90.49143799 15.88623047 83.95263672 C14.37873088 76.39335059 12.86568135 68.83519104 11.34975994 61.27758968 C10.04753368 54.78460697 8.74830485 48.29102976 7.45158207 41.79694569 C6.67743232 37.91996181 5.90224543 34.04319316 5.12435532 30.16695786 C4.39364374 26.52495037 3.66669674 22.88221139 2.94265366 19.23887253 C2.54923018 17.26394068 2.15201742 15.28976488 1.75469971 13.31561279 C1.52199371 12.14080353 1.28928772 10.96599426 1.04953003 9.75558472 C0.84564604 8.73465666 0.64176205 7.7137286 0.43169975 6.66186333 C0 4 0 4 0 0 Z " fill="#000000" transform="translate(350,0)"/>
<path d="M0 0 C0.88898483 -0.00274933 1.77796967 -0.00549866 2.69389343 -0.0083313 C3.66133987 -0.00114075 4.62878632 0.0060498 5.62554932 0.01345825 C6.65025833 0.0131662 7.67496735 0.01287415 8.73072815 0.01257324 C12.11795518 0.01396665 15.50496227 0.02952857 18.89215088 0.04519653 C21.24055867 0.04892662 23.58896802 0.05177361 25.93737793 0.05377197 C32.11877742 0.06140875 38.30008295 0.08105773 44.48144531 0.10317993 C50.78890715 0.12363733 57.09638418 0.13277347 63.40386963 0.14285278 C75.780213 0.16430349 88.15648663 0.19844007 100.53277588 0.24050903 C99.8233636 7.97622119 98.39674601 15.48656604 96.86480713 23.09793091 C96.59010608 24.4768655 96.31573159 25.85586518 96.04165649 27.23492432 C95.30145249 30.95407017 94.55643678 34.67223649 93.81029892 38.39019585 C93.02903835 42.28633104 92.2515492 46.1832191 91.47344971 50.07998657 C90.1681904 56.61354188 88.85970371 63.14644474 87.54937744 69.6789856 C86.03316092 77.23823297 84.52252617 84.79858014 83.01473331 92.35951185 C81.71902223 98.85618818 80.42032918 105.35226311 79.11911678 111.84783983 C78.3422914 115.72572264 77.56651453 119.60380735 76.79342651 123.48243713 C76.06802845 127.12093939 75.33890256 130.75867456 74.6068306 134.39583969 C74.20965388 136.37387322 73.81628507 138.35267014 73.42300415 140.33148193 C73.18747833 141.49783173 72.95195251 142.66418152 72.70928955 143.86587524 C72.50502853 144.88567223 72.30076752 145.90546921 72.09031677 146.95616913 C71.53277588 149.24050903 71.53277588 149.24050903 70.53277588 150.24050903 C68.88787038 150.33659566 67.23881897 150.36238691 65.59111023 150.36076355 C64.521138 150.36213821 63.45116577 150.36351288 62.34877014 150.3649292 C61.16482162 150.36133392 59.98087311 150.35773865 58.76104736 150.35403442 C56.90277313 150.35425346 56.90277313 150.35425346 55.00695801 150.35447693 C51.60007755 150.35389795 48.19325704 150.34886862 44.78638721 150.34190297 C41.22960761 150.33566896 37.6728273 150.3350656 34.11604309 150.33387756 C27.37641006 150.33076439 20.63679317 150.32255118 13.89716727 150.31252807 C6.2261919 150.30136651 -1.44478423 150.29585638 -9.11576569 150.29083264 C-24.89959453 150.28036856 -40.68340725 150.26276938 -56.46722412 150.24050903 C-55.76494735 143.62153113 -53.94451337 137.40782626 -52.11248779 131.02224731 C-51.5952137 129.19897415 -51.5952137 129.19897415 -51.06748962 127.33886719 C-50.12541798 124.01934008 -49.17749138 120.7015126 -48.22810912 117.38406992 C-47.433767 114.60649633 -46.64222005 111.82812934 -45.85063058 109.04977024 C-43.98155062 102.48989934 -42.10761663 95.93142861 -40.23065186 89.37380981 C-38.29993296 82.62806423 -36.37743993 75.88001342 -34.45900172 69.13076603 C-32.80683031 63.31939203 -31.14949892 57.5095065 -29.48809415 51.70076549 C-28.49800564 48.23893993 -27.50982724 44.77659936 -26.52663231 41.31280899 C-25.42862844 37.44555627 -24.31986968 33.58146524 -23.21014404 29.71755981 C-22.8894696 28.58272156 -22.56879517 27.4478833 -22.23840332 26.27865601 C-19.16809227 15.65190758 -16.62853484 6.95980415 -6.6350975 1.18107796 C-4.23026971 0.13770231 -2.61026534 -0.00624465 0 0 Z " fill="#000000" transform="translate(61.46722412109375,-0.240509033203125)"/>
</svg>
